<?xml version="1.0" standalone="no"?>
<!DOCTYPE svg PUBLIC "-//W3C//DTD SVG 20010904//EN"
 "http://www.w3.org/TR/2001/REC-SVG-20010904/DTD/svg10.dtd">
<svg version="1.0" xmlns="http://www.w3.org/2000/svg"
 width="500.000000pt" height="500.000000pt" viewBox="0 0 500.000000 500.000000"
 preserveAspectRatio="xMidYMid meet">

<g transform="translate(0.000000,500.000000) scale(0.100000,-0.100000)"
fill="#000000" stroke="none">
<path d="M2842 4789 c-331 -29 -652 -142 -928 -327 -257 -173 -440 -367 -599
-637 -85 -143 -184 -387 -201 -493 l-6 -38 59 -12 c33 -7 64 -12 69 -12 6 0
16 24 23 53 42 165 157 409 269 567 82 115 249 290 357 376 225 175 473 289
764 351 115 25 146 27 346 28 247 0 337 -12 531 -71 288 -87 533 -233 750
-449 664 -660 711 -1716 108 -2435 -67 -81 -140 -153 -247 -244 l-67 -58 2
-591 3 -592 68 -3 67 -3 0 559 0 558 93 84 c357 323 566 719 632 1195 25 178
16 466 -19 633 -143 672 -601 1208 -1236 1445 -258 96 -571 140 -838 116z"/>
<path d="M2710 4154 c-14 -2 -59 -9 -100 -15 -221 -33 -456 -155 -626 -326
-131 -132 -219 -277 -285 -468 -19 -56 -35 -82 -80 -127 -90 -91 -60 -88 -791
-88 -345 0 -628 3 -628 7 0 4 44 51 97 105 l97 97 -24 26 -23 25 -146 -145
-145 -145 144 -145 145 -145 25 26 25 25 -85 82 c-47 45 -94 92 -104 105 l-19
22 431 0 c414 0 432 -1 432 -19 0 -28 -58 -224 -96 -324 -19 -48 -97 -220
-175 -380 -77 -161 -141 -296 -142 -301 -1 -5 90 -47 203 -95 l205 -86 3 -578
2 -577 360 0 360 0 0 -255 0 -255 70 0 70 0 -2 328 -3 327 -349 2 c-192 1
-350 4 -352 6 -2 2 -4 247 -5 545 0 401 -4 543 -12 550 -7 5 -86 40 -176 77
-89 38 -165 74 -168 81 -2 6 30 79 71 162 151 301 205 439 261 657 l32 130
154 6 c142 5 159 7 211 33 108 51 142 98 223 301 57 145 118 237 235 355 154
156 312 250 505 299 432 111 853 -43 1089 -398 108 -162 155 -305 163 -497 8
-186 -15 -302 -93 -457 -91 -181 -273 -346 -464 -418 -357 -136 -747 -27 -955
265 -106 151 -149 283 -149 461 -1 137 19 218 82 340 55 106 191 238 302 293
105 51 199 74 311 74 113 0 186 -16 288 -63 68 -32 98 -54 165 -121 93 -95
137 -169 166 -284 54 -211 2 -412 -144 -559 -116 -115 -243 -168 -406 -167
-294 2 -516 240 -497 532 8 135 70 247 183 333 212 161 521 87 632 -151 23
-49 27 -70 27 -157 0 -89 -3 -106 -27 -155 -36 -72 -110 -146 -178 -179 -47
-22 -69 -26 -145 -26 -78 0 -97 4 -140 27 -60 31 -114 87 -146 148 -33 63 -34
205 -2 265 28 53 100 119 147 136 34 12 37 16 32 43 -4 16 -8 31 -10 34 -10 9
-116 -48 -155 -83 -91 -83 -132 -235 -96 -361 84 -294 455 -379 675 -154 134
137 165 327 82 505 -140 298 -545 358 -790 117 -101 -98 -152 -223 -152 -372
0 -311 228 -550 540 -567 191 -10 340 47 476 182 131 129 184 261 184 455 0
126 -16 196 -70 305 -81 166 -218 286 -401 352 -60 21 -97 27 -194 30 -174 7
-299 -24 -442 -108 -81 -48 -212 -181 -261 -264 -115 -197 -140 -446 -66 -673
119 -364 495 -617 874 -588 420 33 757 309 863 709 31 119 31 386 0 502 -57
210 -148 362 -304 510 -166 158 -355 244 -599 274 -82 11 -168 12 -220 5z"/>
</g>
</svg>
